<svg width="37" height="37" viewBox="0 0 37 37" fill="none" xmlns="http://www.w3.org/2000/svg">
<g opacity="0.67">
<path d="M18.3581 0C20.8993 0 23.2872 0.481954 25.5217 1.44586C27.7562 2.40977 29.7059 3.72419 31.3709 5.38913C33.0358 7.05406 34.3502 8.99648 35.3141 11.2164C36.278 13.4363 36.76 15.8169 36.76 18.3581C36.76 20.8993 36.278 23.2872 35.3141 25.5217C34.3502 27.7562 33.0358 29.7059 31.3709 31.3708C29.7059 33.0358 27.7562 34.3502 25.5217 35.3141C23.2872 36.278 20.8993 36.76 18.3581 36.76C15.8169 36.76 13.4363 36.278 11.2164 35.3141C8.99648 34.3502 7.05406 33.0358 5.38913 31.3708C3.72419 29.7059 2.40977 27.7562 1.44586 25.5217C0.481955 23.2872 0 20.8993 0 18.3581C0 15.8169 0.481955 13.4363 1.44586 11.2164C2.40977 8.99648 3.72419 7.05406 5.38913 5.38913C7.05406 3.72419 8.99648 2.40977 11.2164 1.44586C13.4363 0.481954 15.8169 0 18.3581 0ZM25.2807 8.01797H21.3813C20.6218 8.01797 19.9208 8.14941 19.2782 8.41229C18.6356 8.67518 18.0733 9.02569 17.5913 9.46383C17.1094 9.90197 16.737 10.3985 16.4741 10.9535C16.2112 11.5085 16.0798 12.0635 16.0798 12.6184V14.9406H12.6184V19.4972H16.0798V28.6982H20.6802V19.4972H24.0977V14.9406H20.6802V13.7576C20.6802 13.4071 20.819 13.1296 21.0965 12.9251C21.374 12.7207 21.6149 12.6184 21.8194 12.6184H25.2807V8.01797Z" fill="white"/>
</g>
</svg>
