<svg width="37" height="37" viewBox="0 0 37 37" fill="none" xmlns="http://www.w3.org/2000/svg">
<g opacity="0.67">
<path d="M18.1824 22.4425C17.6261 22.4425 17.1063 22.34 16.6232 22.135C16.1401 21.9301 15.7156 21.6446 15.3496 21.2786C14.9836 20.9126 14.6981 20.4808 14.4932 19.983C14.2882 19.4853 14.1858 18.9583 14.1858 18.4019C14.1858 17.8456 14.2882 17.3259 14.4932 16.8428C14.6981 16.3597 14.9836 15.9352 15.3496 15.5692C15.7156 15.2032 16.1401 14.9177 16.6232 14.7128C17.1063 14.5078 17.6261 14.4053 18.1824 14.4053C19.295 14.4053 20.2392 14.7933 21.0151 15.5692C21.791 16.3451 22.179 17.2893 22.179 18.4019C22.179 18.9583 22.0765 19.4853 21.8715 19.983C21.6666 20.4808 21.3811 20.9126 21.0151 21.2786C20.6491 21.6446 20.2246 21.9301 19.7415 22.135C19.2584 22.34 18.7387 22.4425 18.1824 22.4425ZM24.5945 18.4019C24.5945 18.1384 24.5799 17.8676 24.5506 17.5895C24.5213 17.3113 24.4774 17.0551 24.4188 16.8209H26.2195V25.6485C26.2195 25.8828 26.1463 26.0731 25.9999 26.2195C25.8535 26.3659 25.6632 26.4391 25.429 26.4391H10.9358C10.7015 26.4391 10.5112 26.3659 10.3648 26.2195C10.2184 26.0731 10.1452 25.8828 10.1452 25.6485V16.8209H11.9459C11.8873 17.0551 11.8434 17.3113 11.8141 17.5895C11.7849 17.8676 11.7702 18.1384 11.7702 18.4019C11.7702 19.2803 11.9386 20.1148 12.2753 20.9053C12.612 21.6959 13.0658 22.3839 13.6368 22.9695C14.2077 23.5551 14.8885 24.0162 15.679 24.3529C16.4695 24.6896 17.304 24.858 18.1824 24.858C19.0607 24.858 19.8952 24.6896 20.6857 24.3529C21.4763 24.0162 22.157 23.5551 22.7279 22.9695C23.2989 22.3839 23.7527 21.6959 24.0894 20.9053C24.4261 20.1148 24.5945 19.2803 24.5945 18.4019ZM18.358 0C20.9053 0 23.2916 0.483106 25.5168 1.44932C27.742 2.41553 29.6891 3.72577 31.358 5.38004C33.0269 7.03432 34.3445 8.97406 35.3107 11.1993C36.2769 13.4245 36.76 15.8107 36.76 18.358C36.76 20.9053 36.2769 23.2916 35.3107 25.5168C34.3445 27.742 33.0269 29.6891 31.358 31.358C29.6891 33.0269 27.742 34.3444 25.5168 35.3107C23.2916 36.2769 20.9053 36.76 18.358 36.76C15.8107 36.76 13.4245 36.2769 11.1993 35.3107C8.97406 34.3444 7.03432 33.0269 5.38005 31.358C3.72577 29.6891 2.41553 27.742 1.44932 25.5168C0.483106 23.2916 0 20.9053 0 18.358C0 15.8107 0.483106 13.4245 1.44932 11.1993C2.41553 8.97406 3.72577 7.03432 5.38005 5.38004C7.03432 3.72577 8.97406 2.41553 11.1993 1.44932C13.4245 0.483106 15.8107 0 18.358 0ZM28.635 10.3648C28.635 9.6914 28.4008 9.12046 27.9323 8.65199C27.4639 8.18352 26.8929 7.94929 26.2195 7.94929H10.1452C9.47181 7.94929 8.90086 8.18352 8.4324 8.65199C7.96393 9.12046 7.7297 9.6914 7.7297 10.3648V26.4391C7.7297 27.1125 7.96393 27.6834 8.4324 28.1519C8.90086 28.6204 9.47181 28.8546 10.1452 28.8546H26.2195C26.8929 28.8546 27.4639 28.6204 27.9323 28.1519C28.4008 27.6834 28.635 27.1125 28.635 26.4391V10.3648ZM25.429 10.3648C25.6632 10.3648 25.8535 10.4453 25.9999 10.6064C26.1463 10.7674 26.2195 10.965 26.2195 11.1993V13.6148C26.2195 13.849 26.1463 14.0394 25.9999 14.1857C25.8535 14.3321 25.6632 14.4053 25.429 14.4053H23.0134C22.7792 14.4053 22.5816 14.3321 22.4205 14.1857C22.2595 14.0394 22.179 13.849 22.179 13.6148V11.1993C22.179 10.965 22.2595 10.7674 22.4205 10.6064C22.5816 10.4453 22.7792 10.3648 23.0134 10.3648H25.429Z" fill="white"/>
</g>
</svg>
