<svg width="37" height="37" viewBox="0 0 37 37" fill="none" xmlns="http://www.w3.org/2000/svg">
<g opacity="0.67">
<path d="M18.358 0C20.9053 0 23.2916 0.483106 25.5168 1.44932C27.742 2.41553 29.6891 3.72577 31.358 5.38004C33.0269 7.03432 34.3445 8.97406 35.3107 11.1993C36.2769 13.4245 36.76 15.8107 36.76 18.358C36.76 20.9053 36.2769 23.2916 35.3107 25.5168C34.3445 27.742 33.0269 29.6891 31.358 31.358C29.6891 33.0269 27.742 34.3444 25.5168 35.3107C23.2916 36.2769 20.9053 36.76 18.358 36.76C15.8107 36.76 13.4245 36.2769 11.1993 35.3107C8.97406 34.3444 7.03432 33.0269 5.38005 31.358C3.72577 29.6891 2.41553 27.742 1.44932 25.5168C0.483106 23.2916 0 20.9053 0 18.358C0 15.8107 0.483106 13.4245 1.44932 11.1993C2.41553 8.97406 3.72577 7.03432 5.38005 5.38004C7.03432 3.72577 8.97406 2.41553 11.1993 1.44932C13.4245 0.483106 15.8107 0 18.358 0ZM12.6486 13.7905H8.03713V28.7228H12.6486V13.7905ZM10.3209 12.6047C10.965 12.6047 11.514 12.3851 11.9679 11.9459C12.4217 11.5067 12.6486 10.965 12.6486 10.3209C12.6486 9.67676 12.4217 9.1351 11.9679 8.69591C11.514 8.25672 10.965 8.03713 10.3209 8.03713C9.67676 8.03713 9.1351 8.25672 8.69591 8.69591C8.25672 9.1351 8.03713 9.67676 8.03713 10.3209C8.03713 10.965 8.25672 11.5067 8.69591 11.9459C9.1351 12.3851 9.67676 12.6047 10.3209 12.6047ZM28.7229 20.0709C28.7229 19.0168 28.4301 17.9847 27.8445 16.9746C27.2589 15.9645 26.4976 15.1959 25.5607 14.6689C24.7116 14.2004 23.7234 13.9515 22.5962 13.9222C21.4689 13.893 20.4369 14.0833 19.4999 14.4932V13.7905H14.9324V28.7228H19.4999V19.5878L21.4323 18.6655C21.6666 18.5483 21.9813 18.4898 22.3766 18.4898C22.7719 18.4898 23.0866 18.563 23.3209 18.7094C23.4965 18.7972 23.6722 18.9875 23.8479 19.2803C24.0236 19.5731 24.1114 19.8366 24.1114 20.0709V28.7228H28.7229V20.0709Z" fill="white"/>
</g>
</svg>
