<svg width="839" height="138" viewBox="0 0 839 138" fill="none" xmlns="http://www.w3.org/2000/svg">
<g clip-path="url(#clip0_575_2333)">
<path d="M61.6904 16.66V31.33C80.1004 35.66 94.1904 45.66 101.98 64.49H85.6004C79.2004 57.77 73.0004 49.92 61.5804 48.46V107.26C56.2504 111.55 51.3004 111.21 45.5504 108.61V48.46C34.1604 50.16 26.5204 55.94 21.3204 65.04C8.62042 87.12 20.2504 116.71 47.6204 120.76C55.2004 121.87 62.0504 121.11 68.0404 118.27C71.8104 116.47 74.2404 114.08 78.7404 109.86C79.9504 108.72 81.0204 107.68 81.9604 106.71L99.2004 109.41C92.6904 123.95 75.0104 135.44 57.9804 137.2C33.4804 139.73 9.35042 121.49 2.88042 101.69C-2.23958 86.01 -0.0995798 71.17 7.10042 57.08C14.6104 42.3 29.0804 36.14 44.3404 30.88C44.8604 26.24 45.3104 21.99 45.9004 16.83C26.7004 17.77 13.1604 27.28 0.0504199 41.13C0.0504199 33.14 -0.11958 26.87 0.19042 20.61C0.26042 19.23 1.89042 17.63 3.20042 16.66C20.6404 3.25998 40.6404 -1.41002 62.2104 0.359976C77.5404 1.59998 98.7504 10.57 105.57 19.5V39.85C93.1504 27.18 79.5104 18.49 61.6904 16.66Z" fill="#D12028"/>
<path d="M755.53 129.55C755.53 106.28 755.53 83.59 755.53 60.39C782.88 60.39 809.82 60.39 837.84 60.39C832.56 64.93 828.12 68.73 821.69 74.25C806.56 74.25 788.01 74.25 768.91 74.25C768.91 78.65 768.91 82.79 768.91 87.64C782.65 87.55 796.38 87.45 810.12 87.36C805.33 92.31 800.53 97.25 795.74 102.2C788.12 102.2 778.77 102.2 768.9 102.2C768.9 107.11 768.9 111.64 768.9 116.72C787.93 116.72 806.99 116.72 824.83 116.72C829.71 121.19 833.67 124.81 838.85 129.55C810.22 129.55 783.17 129.55 755.53 129.55Z" fill="#D12028"/>
<path d="M229.2 102.03C229.2 107.4 229.2 111.79 229.2 116.79C248.21 116.79 267.06 116.79 283.98 116.79C289.05 121.85 292.84 125.63 296.94 129.72C270.16 129.72 243.45 129.72 216.18 129.72C216.18 106.7 216.18 83.89 216.18 60.51C243.34 60.51 270.38 60.51 298.63 60.51C294.39 65.11 290.15 69.7 285.91 74.3C267.2 74.3 248.5 74.3 229.33 74.3C229.33 78.83 229.33 82.96 229.33 87.59C242.52 87.88 255.72 88.16 268.91 88.45C265.41 92.98 261.92 97.5 258.42 102.03C248.93 102.03 239.43 102.03 229.2 102.03Z" fill="#D12028"/>
<path d="M580.22 80.17C581.34 77.7 583.37 73.24 587.66 69.16C593.17 63.93 600.39 61.08 608.51 60.17C621.62 58.7 634.84 58.97 646.12 68.04C666.71 84.6 662.22 115.01 641.25 125.6C635.95 128.28 629.6 129.72 623.63 130.06C615.98 130.49 607.85 130.55 600.62 128.43C595.52 126.94 591.25 124.56 587.77 121.45C579.12 113.69 577.26 103.6 576.84 100.54C575.52 90.83 578.76 83.4 580.22 80.17ZM609.76 74.21C605.76 75.35 594.13 78.67 590.86 89.4C588.32 97.74 591.85 107.55 598.52 112.5C606.43 118.38 615.45 117.31 624.22 116.96C635.57 116.51 644.93 108.09 645.87 97.47C646.57 89.53 642.51 83.36 641.43 81.95C633.67 71.88 619.02 71.58 609.76 74.21Z" fill="#D12028"/>
<path d="M409.49 130.02C404.67 130.02 401.02 130.02 396.81 130.02C396.81 106.77 396.81 83.79 396.81 60.32C400.73 60.32 404.52 60.32 409.07 60.32C409.07 69.15 409.07 77.98 409.07 87.34C428.03 87.34 446.24 87.34 465.23 87.34C465.23 78.63 465.23 69.8 465.23 60.41C469.9 60.41 473.82 60.41 478.22 60.41C478.22 83.43 478.22 106.27 478.22 129.71C474.26 129.71 470.34 129.71 465.65 129.71C465.65 120.78 465.65 111.94 465.65 102.69C446.68 102.69 428.47 102.69 409.5 102.69C409.49 111.71 409.49 120.54 409.49 130.02Z" fill="#D12028"/>
<path d="M557.04 74.2C545.15 74.2 533.26 74.19 521.37 74.2C510.28 74.22 501.26 82.04 499.84 92.84C498.5 103.01 505.99 113.87 516.68 115.78C523.68 117.03 530.95 116.84 538.1 117.05C544.34 117.24 550.58 117.09 554.88 117.09C560.13 121.66 564.18 125.18 569.37 129.7C566.26 129.99 564.66 130.27 563.06 130.28C548.61 130.31 534.16 130.31 519.71 130.3C502.82 130.28 487.25 114.55 486.44 97.74C485.33 74.87 503.43 59.83 524.1 59.83C528.58 59.83 528.32 59.72 562.18 59.85C565.2 59.86 567.69 59.87 569.37 59.87" fill="#D12028"/>
<path d="M376.16 74.2C364.27 74.2 352.38 74.19 340.49 74.2C329.4 74.22 320.38 82.04 318.96 92.84C317.62 103.01 325.11 113.87 335.8 115.78C342.8 117.03 350.07 116.84 357.22 117.05C363.46 117.24 369.7 117.09 374 117.09C379.25 121.66 383.3 125.18 388.49 129.7C385.38 129.99 383.78 130.27 382.18 130.28C367.73 130.31 353.28 130.31 338.83 130.3C321.94 130.28 306.37 114.55 305.56 97.74C304.45 74.87 322.55 59.83 343.22 59.83C347.7 59.83 347.44 59.72 381.3 59.85C384.32 59.86 386.81 59.87 388.49 59.87" fill="#D12028"/>
<path d="M680.02 116.89C699.88 116.89 718.57 116.89 734.23 116.89C740.23 122.1 744.37 125.69 749.2 129.89C721.41 129.72 693.61 129.55 665.82 129.37C666.13 106.37 666.43 83.37 666.74 60.37C670.94 60.37 675.09 60.37 680.03 60.37C680.02 78.91 680.02 97.47 680.02 116.89Z" fill="#D12028"/>
<path d="M195.17 74.31C188.76 74.31 182.34 74.31 175.17 74.31C175.17 92.76 175.17 110.93 175.17 129.69C170.12 129.69 165.81 129.69 160.74 129.69C160.74 111.43 160.74 93.26 160.74 74.07C149.09 74.07 138.15 74.07 126.64 74.07C131.84 69.44 136.2 65.56 142.39 60.05C161.76 60.05 184.56 60.05 207.94 60.05C203.68 64.8 199.42 69.56 195.17 74.31Z" fill="#D12028"/>
</g>
<defs>
<clipPath id="clip0_575_2333">
<rect width="838.86" height="137.44" fill="white"/>
</clipPath>
</defs>
</svg>
