<svg width="30" height="54" viewBox="0 0 30 54" fill="none" xmlns="http://www.w3.org/2000/svg">
<path d="M13.5338 6.18057V0H17.9555V6.13166C24.4292 6.76682 27.6293 10.2114 27.6293 10.2114L24.0383 15.7567C24.0383 15.7567 21.0824 12.8986 16.2699 12.8986C12.5811 12.8986 10.6268 14.9995 10.6268 17.6134C10.6268 19.7876 12.801 21.2045 15.8302 22.5725C21.3267 25.0398 29.0463 27.7759 29.0463 35.1047C29.0463 42.6777 24.1361 46.4153 17.98 47.3436V53.5242H13.5583V47.5391C4.37293 47.1482 0 41.6028 0 41.6028L4.2751 35.813C4.2751 35.813 8.74563 40.5768 14.0468 40.5768C16.8072 40.5768 20.7892 39.7462 20.7892 35.5199C20.7892 32.1243 16.6607 30.4631 11.3107 28.0935C6.1073 25.7727 3.24912 22.1572 3.24912 17.8821C3.22469 11.5794 8.03728 7.15773 13.5338 6.18057Z" fill="white"/>
</svg>
