<svg width="31" height="31" viewBox="0 0 31 31" fill="none" xmlns="http://www.w3.org/2000/svg">
<path d="M30.2309 15.1109C30.2343 15.5538 30.0996 15.9869 29.8456 16.3498C29.5915 16.7127 29.2307 16.9875 28.8134 17.1359L20.249 20.2503L17.1359 28.8134C16.9824 29.2267 16.7061 29.5832 16.3441 29.835C15.9822 30.0868 15.5518 30.2217 15.1109 30.2217C14.6699 30.2217 14.2395 30.0868 13.8776 29.835C13.5156 29.5832 13.2393 29.2267 13.0859 28.8134L9.97275 20.249L1.40835 17.1359C0.994977 16.9824 0.638463 16.7061 0.386704 16.3441C0.134944 15.9822 0 15.5518 0 15.1109C0 14.6699 0.134944 14.2395 0.386704 13.8776C0.638463 13.5156 0.994977 13.2393 1.40835 13.0859L9.97275 9.97275L13.0859 1.40835C13.2393 0.994977 13.5156 0.638463 13.8776 0.386704C14.2395 0.134944 14.6699 0 15.1109 0C15.5518 0 15.9822 0.134944 16.3441 0.386704C16.7061 0.638463 16.9824 0.994977 17.1359 1.40835L20.2503 9.97275L28.8134 13.0859C29.2307 13.2343 29.5915 13.509 29.8456 13.8719C30.0996 14.2348 30.2343 14.6679 30.2309 15.1109Z" fill="white"/>
</svg>
