<svg width="56" height="56" viewBox="0 0 56 56" fill="none" xmlns="http://www.w3.org/2000/svg">
<path d="M48.614 34.1275C52.2295 34.1275 55.161 31.196 55.161 27.5805C55.161 23.965 52.2295 21.0335 48.614 21.0335C48.443 21.0335 48.2964 21.0579 48.1254 21.0824C47.759 19.8853 47.2704 18.7616 46.6841 17.6623C46.8063 17.5646 46.9528 17.4668 47.0749 17.3447C49.64 14.7796 49.64 10.6511 47.0749 8.08604C44.5099 5.52098 40.3814 5.52098 37.8163 8.08604C37.6942 8.20818 37.6209 8.35477 37.4987 8.47691C36.3994 7.91504 35.2757 7.42647 34.0787 7.0356C34.0787 6.8646 34.1275 6.718 34.1275 6.54699C34.1275 2.93148 31.196 0 27.5805 0C23.965 0 21.0335 2.93148 21.0335 6.54699C21.0335 6.718 21.0579 6.8646 21.0824 7.0356C19.8853 7.40204 18.7616 7.89061 17.6623 8.47691C17.5646 8.35477 17.4668 8.20818 17.3447 8.08604C14.7796 5.52098 10.6511 5.52098 8.08604 8.08604C5.52098 10.6511 5.52098 14.7796 8.08604 17.3447C8.20818 17.4668 8.35477 17.5401 8.47691 17.6623C7.91504 18.7616 7.42647 19.8853 7.0356 21.0824C6.8646 21.0824 6.718 21.0335 6.54699 21.0335C2.93148 21.0335 0 23.965 0 27.5805C0 31.196 2.93148 34.1275 6.54699 34.1275C6.718 34.1275 6.8646 34.1031 7.0356 34.0787C7.40204 35.2757 7.89061 36.3994 8.47691 37.4987C8.35477 37.5965 8.20818 37.6942 8.08604 37.8163C5.52098 40.3814 5.52098 44.5099 8.08604 47.0749C10.6511 49.64 14.7796 49.64 17.3447 47.0749C17.4668 46.9528 17.5401 46.8063 17.6623 46.6841C18.7616 47.246 19.8853 47.7346 21.0824 48.1254C21.0824 48.2964 21.0335 48.443 21.0335 48.614C21.0335 52.2295 23.965 55.161 27.5805 55.161C31.196 55.161 34.1275 52.2295 34.1275 48.614C34.1275 48.443 34.1031 48.2964 34.0787 48.1254C35.2757 47.759 36.3994 47.2704 37.4987 46.6841C37.5965 46.8063 37.6942 46.9528 37.8163 47.0749C40.3814 49.64 44.5099 49.64 47.0749 47.0749C49.64 44.5099 49.64 40.3814 47.0749 37.8163C46.9528 37.6942 46.8063 37.6209 46.6841 37.4987C47.246 36.3994 47.7346 35.2757 48.1254 34.0787C48.2964 34.1031 48.443 34.1275 48.614 34.1275ZM27.6049 40.8211C20.3006 40.8211 14.3888 34.9092 14.3888 27.6049C14.3888 20.3006 20.3006 14.3888 27.6049 14.3888C34.9092 14.3888 40.8211 20.3006 40.8211 27.6049C40.8211 34.8848 34.8848 40.8211 27.6049 40.8211Z" fill="white"/>
</svg>
